<?xml version="1.0" encoding="utf-8"?>
<!-- Generator: Adobe Illustrator 21.1.0, SVG Export Plug-In . SVG Version: 6.00 Build 0)  -->
<svg version="1.1" id="Layer_1" xmlns="http://www.w3.org/2000/svg" xmlns:xlink="http://www.w3.org/1999/xlink" x="0px" y="0px"
	 viewBox="0 0 581.8 447" style="enable-background:new 0 0 581.8 447;" xml:space="preserve">
<style type="text/css">
	.st0{fill:#FFFFFF;}
</style>
<g id="Wortmarke">
	<path class="st0" d="M318.4,0v226.3h28.2v-80.2h0.6l41.9,80.2h29.6L375.8,144l37.9-67.9h-29.2l-37.3,64.3h-0.6V0H318.4z M75.3,0
		v226.3h28.5V119.6l0.1-1.4v-1.5l0.1-1.3l0.1-1.4l0.1-1.3l0.2-1.2l0.2-1.2l0.3-1.2l0.3-1.1l0.3-1.1l0.4-1l0.4-0.9l0.4-0.9l0.5-0.9
		l0.5-0.8l0.5-0.8l0.6-0.7l0.6-0.7l0.6-0.6l0.7-0.6l0.7-0.6l0.7-0.5l0.8-0.4l0.8-0.4l0.9-0.3l0.9-0.4l0.9-0.3l0.9-0.2l0.9-0.1
		l1.1-0.1l1.1-0.1h1.1h1.1l1,0.1l1,0.1l0.9,0.2l1,0.1l0.9,0.3l0.9,0.3l0.8,0.3l0.8,0.3l0.8,0.4l0.7,0.4l0.7,0.6l0.6,0.5l0.7,0.6
		l0.6,0.6l0.5,0.7l0.5,0.7l0.5,0.7l0.5,0.7l0.4,0.9l0.4,0.8l0.3,0.9l0.3,0.9l0.3,0.9l0.3,1.1l0.2,1.1l0.2,1.1l0.1,1.2l0.1,1.2
		l0.1,1.2l0.1,1.3v1.4v109.1h27.7V108.4l-0.1-2.1l-0.1-2.1l-0.1-2l-0.3-2l-0.3-1.8l-0.3-1.8l-0.4-1.7l-0.5-1.7l-0.5-1.6l-0.6-1.6
		l-0.6-1.4l-0.7-1.4l-0.8-1.3l-0.8-1.3l-0.9-1.1l-1-1.1l-1-1l-1.1-1l-1.1-0.9l-1.2-0.9l-1.3-0.7l-1.4-0.7l-1.4-0.6l-1.5-0.6
		l-1.5-0.5l-1.5-0.5l-1.7-0.3l-1.7-0.3l-1.8-0.2l-1.8-0.2l-1.9-0.1h-1.9l-2,0.1l-2,0.1l-2,0.3l-2,0.4l-2,0.5l-2,0.7l-2,0.7l-2,0.9
		l-1.9,0.9l-1.9,1.1l-1.9,1.2l-1.9,1.3l-1.9,1.5l-1.8,1.6l-1.8,1.7l-1.9,1.8V0H75.3z M193.4,14.8h-0.8l-0.7,0.1l-0.7,0.1l-0.7,0.1
		l-0.7,0.2l-0.8,0.2l-0.7,0.2l-0.7,0.3l-0.7,0.3l-0.7,0.3l-0.7,0.4l-0.6,0.4l-0.6,0.4l-0.6,0.5l-0.6,0.6l-0.6,0.5L182,20l-0.5,0.6
		l-0.5,0.6l-0.4,0.6l-0.4,0.7l-0.4,0.6l-0.3,0.7l-0.3,0.7l-0.3,0.7l-0.2,0.7l-0.2,0.7l-0.2,0.7l-0.1,0.7l-0.1,0.7v0.8l-0.1,0.7
		l0.1,0.8v0.8l0.1,0.7l0.1,0.8l0.2,0.7l0.2,0.7l0.2,0.7l0.3,0.7l0.3,0.8l0.3,0.6l0.4,0.7l0.4,0.6l0.4,0.7l0.5,0.5l0.5,0.6l0.5,0.6
		l0.6,0.5l0.6,0.5l0.6,0.6l0.6,0.4l0.7,0.4l0.6,0.4l0.7,0.4l0.7,0.3l0.7,0.3l0.7,0.3l0.7,0.2l0.7,0.1l0.8,0.1l0.7,0.1l0.8,0.1h0.8
		h0.8l0.7-0.1l0.7-0.1l0.7-0.1l0.8-0.1l0.8-0.2l0.7-0.3l0.7-0.3l0.7-0.3l0.7-0.4l0.7-0.4l0.6-0.4l0.6-0.4l0.6-0.6l0.6-0.5l0.6-0.5
		l0.5-0.6l0.5-0.5l0.5-0.6l0.4-0.7l0.5-0.6l0.3-0.7l0.4-0.6l0.3-0.7l0.3-0.7l0.2-0.7l0.2-0.7l0.1-0.7l0.1-0.8l0.1-0.7V31l0.1-0.8
		l-0.1-0.7v-0.8l-0.1-0.7l-0.1-0.7l-0.1-0.7l-0.2-0.7l-0.2-0.7l-0.3-0.7l-0.3-0.7l-0.4-0.7l-0.3-0.6l-0.5-0.7l-0.4-0.6l-0.5-0.6
		L205,20l-0.5-0.5l-0.6-0.5l-0.6-0.6l-0.6-0.5l-0.6-0.5l-0.6-0.4l-0.7-0.4l-0.7-0.3l-0.7-0.3l-0.7-0.3l-0.7-0.2l-0.8-0.2l-0.8-0.2
		l-0.7-0.1l-0.7-0.1l-0.7-0.1C194.3,14.8,193.4,14.8,193.4,14.8z M276.5,73.5l-2.2,0.1l-2.2,0.2l-1.1,0.1l-1.1,0.1l-1.1,0.3l-1,0.2
		l-1,0.3l-1,0.4l-1,0.3l-1,0.3l-0.9,0.4l-0.9,0.5l-0.9,0.5l-0.9,0.5l-0.9,0.5l-0.9,0.5l-0.9,0.6l-0.9,0.7l-0.8,0.6l-0.9,0.7
		l-0.8,0.7l-0.8,0.7l-1.6,1.6l-1.5,1.8l-1.4,1.8l-1.4,2h-0.7V75.6h-28.5v150.7h28.1V117.2l0.1-1.3l0.1-1.3l0.1-1.2l0.1-1.1l0.1-1.2
		l0.2-1.1l0.3-1.1l0.3-1l0.3-1l0.3-0.9l0.4-0.9l0.4-0.9l0.5-0.9l0.5-0.8l0.5-0.8l0.6-0.7l0.6-0.7l0.6-0.7L253,99l0.7-0.6l0.7-0.5
		l0.7-0.5l0.8-0.4l0.8-0.4l0.8-0.3l0.9-0.3l0.8-0.2l0.9-0.3l0.9-0.1l0.9-0.1l1-0.1h1h1l1.1,0.1l1,0.1l1,0.1l0.9,0.2l0.9,0.3l0.9,0.2
		l0.8,0.4l0.8,0.3l0.8,0.4l0.7,0.5l0.7,0.5l0.7,0.5l0.6,0.6l0.6,0.6l0.5,0.7l0.5,0.7l0.5,0.7l0.5,0.8l0.4,0.8l0.4,1l0.3,0.9l0.3,1
		l0.3,1l0.3,1.1l0.2,1.1l0.2,1.1l0.1,1.2l0.1,1.2l0.1,1.3v1.4l0.1,1.4v109.1H309V109.1l-0.1-2.2l-0.1-2.1l-0.1-2l-0.3-2l-0.3-1.9
		l-0.3-1.8l-0.4-1.8l-0.5-1.7l-0.5-1.6l-0.6-1.6l-0.7-1.5l-0.7-1.4l-0.8-1.3l-0.9-1.3l-0.9-1.2l-1-1.1l-1.1-1.1l-1.1-1l-1.2-0.9
		l-1.2-0.9l-1.3-0.8l-1.4-0.7l-1.4-0.7l-1.5-0.6l-1.5-0.5l-1.6-0.5l-1.7-0.3l-1.8-0.3l-1.8-0.3l-1.9-0.1l-2-0.1h-1.8V73.5z
		 M179.4,226.3h27.8V76.1h-27.8V226.3z"/>
	<path class="st0" d="M100.7,347.9l0.2-4.8l0.1-2.2l0.2-2.2l0.1-2.1l0.2-2l0.3-1.9l0.3-1.9l0.3-1.7l0.4-1.6l0.3-1.6l0.3-1.5l0.4-1.4
		l0.5-1.3l0.5-1.3l0.5-1.1l0.6-1.1l0.7-1l0.7-0.9l0.8-0.9l0.8-0.7l0.9-0.7l1-0.6l1-0.5l1.1-0.5l1.1-0.3l1.2-0.3l1.2-0.2l1.3-0.1
		l1.3-0.1l1.1,0.1l1.1,0.1l1.1,0.1l1,0.3l0.9,0.3l1,0.4l0.9,0.5l0.9,0.5l0.8,0.7l0.7,0.7l0.7,0.8l0.7,0.9l0.6,0.9l0.6,1l0.5,1.1
		l0.5,1.2l0.4,1.3l0.5,1.4l0.3,1.5l0.3,1.5l0.3,1.6l0.3,1.8l0.3,1.9l0.3,1.9l0.2,2l0.2,2.1l0.1,2.3l0.1,2.4l0.1,5l0.1,5.4h-34.8
		L100.7,347.9z M116.2,292.6l-2.9,0.3l-2.8,0.4l-2.7,0.5l-2.6,0.7l-2.5,0.9l-2.4,1l-2.3,1.2l-2.2,1.4l-2.2,1.5l-2,1.6l-1.9,1.8
		l-1.8,2L86,308l-1.7,2.3l-1.6,2.4l-1.4,2.6L80,318l-1.3,2.9l-1.1,3.1l-1.1,3.2l-1,3.4l-0.9,3.5l-0.8,3.7l-0.8,3.8l-0.6,4.1
		l-0.5,4.2l-0.4,4.3l-0.4,4.4l-0.2,4.7l-0.1,4.8l-0.1,5l0.1,4.5l0.1,4.5l0.2,4.3l0.4,4.1l0.4,4l0.5,3.8L73,402l0.7,3.5l0.8,3.5
		l0.8,3.2l1,3.1l1,3l1.1,2.9l1.2,2.6l1.3,2.6l1.4,2.4l1.5,2.2l1.6,2.1l1.7,2l1.8,1.8l1.9,1.6l2,1.6l2.1,1.3l2.2,1.2l2.2,1.1l2.3,0.9
		l2.4,0.8l2.5,0.7l2.6,0.5l2.7,0.4l2.8,0.2l2.9,0.1l2.7-0.1l2.6-0.1l2.5-0.3l2.4-0.3l2.4-0.5l2.3-0.6l2.2-0.7l2.1-0.7l2-0.9l2-1
		l1.8-1.1l1.7-1.1l1.7-1.3l1.6-1.4l1.5-1.5l1.4-1.6l1.4-1.7l1.3-1.8l1.1-1.9l1.2-2l1-2.1l0.9-2.2l0.9-2.3l0.8-2.4l0.7-2.5l0.6-2.6
		l0.5-2.8l0.5-2.8l0.3-2.9l0.3-3l0.2-3.2l0.1-3.2h-25.5l-0.1,3.7l-0.2,3.5l-0.3,3.2l-0.4,3l-0.3,1.3l-0.3,1.4l-0.3,1.2l-0.3,1.2
		l-0.3,1.1l-0.3,1.1l-0.4,1l-0.4,0.9l-0.5,0.9l-0.5,0.8l-0.5,0.7l-0.6,0.7l-0.7,0.7l-0.7,0.6l-0.7,0.6l-0.8,0.5l-0.8,0.4l-0.9,0.4
		l-0.9,0.3l-1,0.3l-1,0.2l-1.1,0.1l-1.1,0.1h-1.2h-1.5l-1.5-0.1l-1.4-0.3l-1.3-0.3l-1.2-0.4L112,423l-1.1-0.6l-1-0.8l-1-0.8
		l-0.9-0.9l-0.8-1l-0.8-1.1l-0.7-1.2l-0.5-1.3l-0.5-1.4l-0.5-1.6l-0.4-1.5l-0.4-1.7l-0.3-1.8l-0.3-1.9l-0.3-2l-0.3-2.1l-0.3-2.1
		l-0.2-2.2l-0.4-4.9l-0.2-5.1l-0.2-5.5l-0.1-5.9H164V364l-0.1-5.3l-0.1-5.1l-0.3-4.9l-0.3-4.7l-0.5-4.4l-0.5-4.2l-0.3-2l-0.3-2
		l-0.4-1.9l-0.4-1.8l-0.4-1.8l-0.5-1.7l-0.5-1.7l-0.5-1.5l-0.5-1.6l-0.5-1.5l-0.6-1.4l-0.6-1.4l-0.6-1.4l-0.7-1.2l-0.7-1.2l-0.7-1.1
		l-0.7-1l-0.7-1.1l-0.8-0.9l-0.8-0.9l-1.7-1.7l-1.7-1.6l-1.7-1.4l-1.8-1.4l-1.9-1.2l-1.8-1.1l-1.9-1.1l-1.9-0.9l-2-0.8l-2-0.7
		l-2.1-0.6l-2.1-0.5l-2.2-0.4l-2.2-0.3l-2.2-0.1l-2.3-0.1L116.2,292.6z"/>
	<polygon class="st0" points="217,292.2 214.8,292.3 212.6,292.5 210.4,292.8 208.3,293.2 206.2,293.8 204.1,294.5 202.1,295.4 
		200.1,296.4 198.2,297.4 196.2,298.7 194.3,300.1 192.5,301.6 190.7,303.2 188.9,305 187.1,306.9 185.4,308.9 184.6,309.9 
		183.8,311.1 183,312.2 182.3,313.4 181.5,314.7 180.8,316 180.2,317.4 179.5,318.9 178.9,320.4 178.3,321.9 177.7,323.5 
		177.2,325.1 176.7,326.8 176.2,328.5 175.7,330.3 175.3,332.2 174.8,334.1 174.5,336 174.1,338 173.8,340.1 173.2,344.3 
		172.8,348.8 172.4,353.4 172.1,358.3 172,363.4 171.9,368.7 172,373.7 172.1,378.5 172.3,383.1 172.6,387.6 172.9,391.9 
		173.4,396.1 173.9,400 174.5,403.8 175.3,407.5 176,410.9 176.9,414.2 177.9,417.4 178.4,418.9 178.9,420.3 179.4,421.7 180,423.1 
		180.6,424.4 181.2,425.7 181.9,427 182.5,428.2 183.2,429.3 183.9,430.5 184.6,431.5 185.4,432.6 186.1,433.6 186.9,434.6 
		187.7,435.5 188.6,436.4 189.5,437.3 190.3,438.1 191.3,438.9 192.2,439.7 193.2,440.4 194.2,441 195.2,441.7 196.3,442.3 
		197.3,442.9 198.4,443.4 199.5,443.9 200.7,444.4 201.8,444.8 203,445.2 204.2,445.6 205.4,445.9 206.7,446.2 208,446.4 
		209.3,446.6 210.6,446.8 212,446.9 213.4,447 214.7,447 216.2,447 217.6,447 219.1,446.9 220.6,446.8 222.1,446.7 223.6,446.4 
		225.1,446.1 226.7,445.8 228.3,445.4 229.9,445 231.5,444.4 233.1,443.9 234.8,443.3 236.4,442.6 238.1,441.9 239.9,441.2 
		241.6,440.4 241.6,417.1 238.9,418.4 236.4,419.5 234.1,420.4 231.9,421.1 229.8,421.7 227.9,422.2 226.9,422.3 226.1,422.4 
		225.2,422.4 224.4,422.4 223,422.4 221.8,422.2 220.5,422 219.2,421.7 218,421.2 216.9,420.7 215.7,420 214.7,419.3 213.7,418.4 
		212.7,417.5 211.8,416.4 210.9,415.3 210.1,414.1 209.3,412.7 208.5,411.2 207.8,409.7 207.1,408.1 206.5,406.3 205.9,404.5 
		205.4,402.5 204.8,400.5 204.4,398.4 204,396.1 203.6,393.8 203.3,391.4 203,388.8 202.8,386.1 202.6,383.4 202.5,380.6 
		202.3,377.6 202.3,374.5 202.3,371.4 202.3,367.9 202.3,364.6 202.5,361.4 202.6,358.3 202.8,355.2 203,352.4 203.3,349.7 
		203.6,347 204,344.5 204.4,342 204.8,339.7 205.4,337.6 205.9,335.6 206.4,333.6 207.1,331.8 207.7,330.1 208.5,328.5 209.2,327 
		210,325.6 210.9,324.3 211.9,323.2 212.8,322.1 213.9,321.1 214.9,320.2 216,319.4 217.2,318.8 218.5,318.2 219.8,317.7 
		221.1,317.4 222.5,317.1 224,317 225.5,316.9 227,317 228.6,317.2 230.4,317.5 232.3,318.1 234.4,318.7 236.5,319.5 238.8,320.4 
		241.2,321.5 241.2,297.5 237.5,296.3 234,295.2 230.7,294.3 227.6,293.5 224.6,292.9 221.9,292.5 220.6,292.4 219.4,292.3 
		218.2,292.2 	"/>
	<polygon class="st0" points="18,253.9 18,294.7 0,294.7 0,316.9 18,316.9 18,385.8 18.2,385.8 18.2,399 18.2,402.1 18.3,405 
		18.5,407.9 18.8,410.7 19.3,413.4 19.7,416 20.3,418.4 20.9,420.8 21.6,423 22.4,425.1 23.3,427.1 24.2,429 25.3,430.9 26.5,432.6 
		27.1,433.4 27.7,434.1 28.3,434.8 29,435.6 29.7,436.3 30.4,437 31.2,437.7 31.9,438.3 33.5,439.5 35.2,440.6 37,441.7 39,442.6 
		41,443.4 43.1,444.1 45.3,444.8 47.7,445.4 50.1,445.9 52.7,446.3 55.3,446.7 58.1,446.9 60.9,447 63.9,447 63.9,424.2 62.8,424.1 
		61.7,424.1 60.7,423.9 59.7,423.8 58.8,423.6 57.8,423.3 56.9,423 56,422.6 55.2,422.2 54.4,421.7 53.7,421.2 53,420.7 52.4,420.1 
		51.7,419.4 51.1,418.7 50.5,417.9 49.9,417.2 49.4,416.3 49,415.4 48.5,414.5 48.1,413.5 47.8,412.4 47.4,411.3 47.2,410.2 
		46.9,409 46.6,407.7 46.4,406.4 46.3,405.1 46.1,403.7 46.1,402.3 46,400.8 46,399.3 46,385.8 46.2,385.8 46.2,316.9 64.4,316.9 
		64.4,294.7 46.2,294.7 46.2,253.9 	"/>
	<polygon class="st0" points="268.7,253.9 268.7,294.7 250.7,294.7 250.7,316.9 268.7,316.9 268.7,447 296.9,447 296.9,316.9 
		315,316.9 315,294.7 296.9,294.7 296.9,253.9 	"/>
	<path class="st0" d="M518.6,347.4l0.1-6.5l0.2-3.4l0.3-3.5l0.2-1.8l0.3-1.7l0.3-1.7l0.3-1.7l0.5-1.6l0.5-1.5l0.5-1.5l0.6-1.5
		l0.7-1.3l0.8-1.4l0.8-1.2l1-1.2l1.1-1l1.1-0.9l1.3-0.8l1.3-0.7l1.5-0.5l1.6-0.4l1.6-0.2l1.8-0.1l1.2,0.1l1.1,0.1l1.1,0.1l1,0.3
		l1,0.3l0.9,0.5l0.9,0.5l0.8,0.5l0.8,0.7l0.7,0.7l0.7,0.8l0.7,0.9l0.6,0.9l0.5,1l0.5,1.1l0.5,1.1l0.4,1.3l0.4,1.4l0.4,1.5l0.3,1.5
		l0.3,1.6l0.3,1.8l0.3,1.9l0.3,1.9l0.2,2l0.2,2.1l0.1,2.3l0.1,2.4l0.1,5l0.1,5.4h-34.8L518.6,347.4L518.6,347.4z M534.2,292.6
		l-2.9,0.3l-2.8,0.4l-2.7,0.5l-2.6,0.7l-2.5,0.9l-2.4,1l-2.3,1.2l-2.2,1.4l-2.2,1.5l-2,1.6l-2,1.8l-1.8,2l-1.7,2.1l-1.7,2.3
		l-1.6,2.4l-1.4,2.6L498,318l-1.3,2.9l-1.1,3.1l-1.1,3.2l-1,3.4l-0.9,3.5l-0.8,3.7l-0.7,3.8l-0.6,4.1l-0.5,4.2l-0.4,4.3l-0.3,4.4
		l-0.2,4.7l-0.1,4.8l-0.1,5v4.5l0.2,4.5l0.2,4.3l0.3,4.1l0.4,4l0.5,3.8l0.6,3.7l0.7,3.5l0.8,3.5l0.8,3.2l1,3.1l1,3l1.1,2.9l1.2,2.6
		l1.3,2.6l1.4,2.4l1.5,2.2l1.6,2.1l1.7,2l1.8,1.8l1.9,1.6l1.9,1.6l2.1,1.3l2.1,1.2l2.3,1.1l2.3,0.9l2.4,0.8l2.5,0.7l2.6,0.5l2.7,0.4
		l2.8,0.2l2.9,0.1l2.7-0.1l2.5-0.1l2.5-0.3l2.5-0.3l2.4-0.5l2.3-0.6l2.1-0.7l2.1-0.7l2-0.9l2-1l1.8-1.1l1.7-1.1l1.7-1.3l1.6-1.4
		l1.5-1.5l1.4-1.6l1.4-1.7l1.3-1.8l1.2-1.9l1.1-2l1-2.1l0.9-2.2l0.9-2.3l0.7-2.4l0.7-2.5l0.6-2.6l0.5-2.8l0.5-2.8l0.3-2.9l0.3-3
		l0.2-3.2l0.1-3.2h-25.5l-0.1,3.7l-0.2,3.5l-0.3,3.2l-0.4,3l-0.3,1.3l-0.3,1.4l-0.3,1.2l-0.3,1.2l-0.3,1.1l-0.3,1.1l-0.4,1l-0.4,0.9
		l-0.5,0.9l-0.5,0.8l-0.5,0.7l-0.6,0.7l-0.7,0.7l-0.7,0.6l-0.7,0.6l-0.8,0.5l-0.8,0.4l-0.9,0.4l-0.9,0.3l-1,0.3l-1,0.2l-1.1,0.1
		l-1.2,0.1h-1.1h-1.6l-1.5-0.1l-1.3-0.3l-1.4-0.3l-1.2-0.4l-1.2-0.5l-1.1-0.6l-1-0.8l-1-0.9l-0.9-0.9l-0.8-1l-0.8-1.1l-0.7-1.2
		l-0.6-1.3l-0.5-1.4l-0.5-1.6l-0.4-1.5L521,409l-0.3-1.8l-0.3-1.9l-0.3-2l-0.3-2.1l-0.3-2.1l-0.2-2.2l-0.4-4.8l-0.2-5.2l-0.2-5.5
		l-0.1-5.9h63.2v-11.2l-0.1-5l-0.1-5.1l-0.3-4.9l-0.3-4.7l-0.5-4.4l-0.6-4.2l-0.3-2l-0.3-1.9l-0.4-1.9l-0.4-1.9l-0.4-1.8l-0.5-1.7
		l-0.5-1.7l-0.5-1.5l-0.5-1.6l-0.5-1.5l-0.6-1.4l-0.6-1.4l-0.6-1.4l-0.7-1.2l-0.7-1.2l-0.7-1.1l-0.7-1l-0.7-1.1l-0.8-0.9l-0.8-0.9
		l-1.7-1.7l-1.7-1.6l-1.8-1.4l-1.7-1.4l-1.8-1.2l-1.9-1.1l-2-1.1l-1.9-0.9l-2-0.8l-2-0.7l-2.1-0.6l-2.1-0.5l-2.2-0.4l-2.2-0.3
		l-2.2-0.1l-2.3-0.1L534.2,292.6z"/>
	<polygon class="st0" points="483.6,292.2 482.4,292.3 481.2,292.5 480,292.7 478.9,293 477.6,293.3 476.5,293.8 475.3,294.3 
		474.3,294.8 473.1,295.4 472.1,296.2 471,296.8 470,297.7 468.9,298.5 467.9,299.4 466.9,300.4 465.9,301.4 464.9,302.4 464,303.5 
		463,304.7 462.1,305.9 461.2,307.2 460.3,308.4 459.4,309.7 458.6,311.1 457,314 455.4,316.9 454.7,316.9 454.7,294.7 426.2,294.7 
		426.2,447 454.7,447 454.7,354.9 454.7,352 454.8,349.2 454.9,346.6 455.2,344.1 455.5,341.8 455.8,339.5 456.2,337.4 456.7,335.4 
		457.3,333.5 457.9,331.8 458.6,330.2 459.3,328.8 460.1,327.5 460.9,326.3 461.4,325.8 461.9,325.2 462.4,324.8 462.9,324.3 
		464,323.5 465.1,322.7 466.3,322 467.7,321.3 469.1,320.7 470.6,320 472.2,319.5 473.9,319 475.7,318.6 477.5,318.2 479.4,317.9 
		481.6,317.6 483.6,317.3 485.9,317.1 488.1,317 490.5,316.9 490.5,292.8 488.7,292.5 487.4,292.3 486.1,292.2 484.8,292.1 	"/>
	<polygon class="st0" points="387.1,294.3 387.1,396.7 387.1,400.3 386.9,403.5 386.7,405.1 386.6,406.6 386.4,408.1 386.2,409.4 
		385.9,410.7 385.7,411.9 385.3,413.1 385,414.1 384.6,415.2 384.2,416.1 383.8,417 383.3,417.8 382.8,418.6 382.2,419.3 381.6,420 
		381,420.6 380.3,421.1 379.6,421.7 378.8,422.2 378,422.6 377.2,423 376.3,423.2 375.3,423.5 374.3,423.8 373.3,423.9 372.2,424.1 
		371.1,424.1 370,424.2 368.9,424.1 367.8,424.1 366.8,423.9 365.8,423.8 364.8,423.6 363.9,423.3 363,423 362.1,422.6 361.3,422.2 
		360.5,421.7 359.8,421.2 359.1,420.7 358.4,420.1 357.7,419.4 357.2,418.7 356.5,417.9 356,417.2 355.5,416.3 355.1,415.4 
		354.6,414.5 354.2,413.5 353.8,412.4 353.5,411.3 353.2,410.2 353,409 352.7,407.7 352.5,406.4 352.4,405.1 352.2,403.7 
		352.2,402.3 352.1,400.8 352.1,399.3 352.1,294.3 324.3,294.3 324.3,399 324.3,402 324.4,405 324.6,407.9 324.9,410.7 325.3,413.4 
		325.7,416 326.4,418.4 327,420.8 327.7,423 328.5,425.1 329.4,427.1 330.3,429 331.4,430.9 332.6,432.6 333.2,433.4 333.8,434.1 
		334.4,434.8 335.1,435.6 335.8,436.3 336.5,437 337.3,437.7 338,438.3 339.6,439.5 341.3,440.6 343.1,441.7 345.1,442.6 
		347.1,443.4 349.2,444.1 351.4,444.8 353.8,445.4 356.2,445.9 358.8,446.3 361.4,446.7 364.2,446.9 367,447 370,447 372.9,447 
		375.7,446.9 378.5,446.7 381.1,446.3 383.6,445.9 386.1,445.4 388.4,444.8 390.6,444.1 392.7,443.3 394.7,442.5 396.6,441.5 
		398.4,440.5 399.3,440 400.1,439.4 400.9,438.8 401.6,438.1 402.4,437.5 403.1,436.8 403.8,436.1 404.5,435.4 405.1,434.7 
		405.7,433.9 406.3,433.2 406.9,432.4 408,430.6 409,428.7 410,426.8 410.9,424.7 411.6,422.5 412.3,420.1 413,417.7 413.5,415.2 
		413.9,412.5 414.3,409.8 414.6,406.8 414.8,403.9 414.9,400.8 414.9,397.6 414.9,294.3 	"/>
	<polygon class="st0" points="46,160.9 46.2,160.9 46.2,98.3 64.4,98.3 64.4,76.1 46.2,76.1 46.2,35.2 18,35.2 18,76.1 0,76.1 
		0,98.3 18,98.3 18,160.9 18.2,160.9 18.2,178.2 18.2,181.3 18.3,184.3 18.5,187.2 18.8,189.9 19.3,192.6 19.7,195.2 20.3,197.6 
		20.9,200 21.6,202.2 22.4,204.3 23.3,206.3 24.2,208.3 25.3,210.1 26.5,211.8 27.1,212.6 27.7,213.4 28.3,214.1 29,214.8 
		29.7,215.6 30.4,216.2 31.2,216.9 31.9,217.5 33.5,218.7 35.2,219.8 37,220.9 39,221.9 41,222.7 43.1,223.4 45.3,224.1 47.7,224.7 
		50.1,225.1 52.7,225.6 55.3,225.9 58.1,226.1 60.9,226.2 63.9,226.3 63.9,203.4 62.8,203.4 61.7,203.3 60.7,203.2 59.7,203 
		58.8,202.8 57.8,202.6 56.9,202.2 56,201.9 55.2,201.4 54.4,201 53.7,200.5 53,199.9 52.4,199.3 51.7,198.6 51.1,198 50.5,197.2 
		49.9,196.4 49.4,195.5 49,194.7 48.5,193.7 48.1,192.7 47.8,191.6 47.4,190.5 47.2,189.4 46.9,188.3 46.6,187 46.4,185.7 
		46.3,184.3 46.1,183 46.1,181.6 46,180.1 46,178.5 	"/>
</g>
</svg>
